# This file uses centimeters as units for non-parametric coordinates.

mtllib tdsw.mtl
g default
v -0.396390 0.000000 0.381280
v -0.132961 0.000000 0.655150
v -0.396390 0.330000 0.381280
v -0.132961 0.330000 0.655150
v -0.198195 0.330000 0.190640
v 0.065235 0.330000 0.464510
v -0.198195 0.000000 0.190640
v 0.065235 0.000000 0.464510
v -0.198195 0.000000 0.190640
v 0.065235 0.000000 0.464510
v -0.198195 0.330000 0.190640
v 0.065235 0.330000 0.464510
v 0.000000 0.330000 0.000000
v 0.263430 0.330000 0.273870
v 0.000000 0.000000 0.000000
v 0.263430 0.000000 0.273870
v -0.396390 0.330000 0.381280
v -0.132961 0.330000 0.655150
v -0.396390 0.660000 0.381280
v -0.132961 0.660000 0.655150
v -0.198195 0.660000 0.190640
v 0.065235 0.660000 0.464510
v -0.198195 0.330000 0.190640
v 0.065235 0.330000 0.464510
v -0.198195 0.660000 0.190640
v 0.065235 0.660000 0.464510
v -0.198195 0.990000 0.190640
v 0.065235 0.990000 0.464510
v 0.000000 0.990000 0.000000
v 0.263430 0.990000 0.273870
v 0.000000 0.660000 0.000000
v 0.263430 0.660000 0.273870
v 0.328664 0.000000 0.738380
v 0.592094 0.000000 1.012250
v 0.328664 0.330000 0.738380
v 0.592094 0.330000 1.012250
v 0.526860 0.330000 0.547740
v 0.790290 0.330000 0.821610
v 0.526860 0.000000 0.547740
v 0.790290 0.000000 0.821610
v -0.132961 0.000000 0.655150
v 0.130469 0.000000 0.929020
v -0.132961 0.330000 0.655150
v 0.130469 0.330000 0.929020
v 0.065235 0.330000 0.464510
v 0.328664 0.330000 0.738380
v 0.065235 0.000000 0.464510
v 0.328664 0.000000 0.738380
v 0.065235 0.000000 0.464510
v 0.328664 0.000000 0.738380
v 0.065235 0.330000 0.464510
v 0.328664 0.330000 0.738380
v 0.263430 0.330000 0.273870
v 0.526860 0.330000 0.547740
v 0.263430 0.000000 0.273870
v 0.526860 0.000000 0.547740
v 0.065235 0.330000 0.464510
v 0.328664 0.330000 0.738380
v 0.065235 0.660000 0.464510
v 0.328664 0.660000 0.738380
v 0.263430 0.660000 0.273870
v 0.526860 0.660000 0.547740
v 0.263430 0.330000 0.273870
v 0.526860 0.330000 0.547740
v -0.198195 0.330000 0.190640
v 0.065235 0.330000 0.464510
v -0.198195 0.660000 0.190640
v 0.065235 0.660000 0.464510
v 0.000000 0.660000 0.000000
v 0.263430 0.660000 0.273870
v 0.000000 0.330000 0.000000
v 0.263430 0.330000 0.273870
v -0.594586 0.000000 0.571920
v -0.331156 0.000000 0.845790
v -0.594586 0.330000 0.571920
v -0.331156 0.330000 0.845790
v -0.396391 0.330000 0.381280
v -0.132961 0.330000 0.655150
v -0.396391 0.000000 0.381280
v -0.132961 0.000000 0.655150
vt 0.375000 0.000000
vt 0.625000 0.000000
vt 0.375000 0.250000
vt 0.625000 0.250000
vt 0.375000 0.500000
vt 0.625000 0.500000
vt 0.375000 0.750000
vt 0.625000 0.750000
vt 0.375000 1.000000
vt 0.625000 1.000000
vt 0.875000 0.000000
vt 0.875000 0.250000
vt 0.125000 0.000000
vt 0.125000 0.250000
vt 0.375000 0.000000
vt 0.625000 0.000000
vt 0.625000 0.250000
vt 0.375000 0.250000
vt 0.625000 0.500000
vt 0.375000 0.500000
vt 0.625000 0.750000
vt 0.375000 0.750000
vt 0.625000 1.000000
vt 0.375000 1.000000
vt 0.875000 0.000000
vt 0.875000 0.250000
vt 0.125000 0.000000
vt 0.125000 0.250000
vt 0.375000 0.000000
vt 0.625000 0.000000
vt 0.625000 0.250000
vt 0.375000 0.250000
vt 0.625000 0.500000
vt 0.375000 0.500000
vt 0.625000 0.750000
vt 0.375000 0.750000
vt 0.625000 1.000000
vt 0.375000 1.000000
vt 0.875000 0.000000
vt 0.875000 0.250000
vt 0.125000 0.000000
vt 0.125000 0.250000
vt 0.375000 0.000000
vt 0.625000 0.000000
vt 0.625000 0.250000
vt 0.375000 0.250000
vt 0.625000 0.500000
vt 0.375000 0.500000
vt 0.625000 0.750000
vt 0.375000 0.750000
vt 0.625000 1.000000
vt 0.375000 1.000000
vt 0.875000 0.000000
vt 0.875000 0.250000
vt 0.125000 0.000000
vt 0.125000 0.250000
vt 0.375000 0.000000
vt 0.625000 0.000000
vt 0.625000 0.250000
vt 0.375000 0.250000
vt 0.625000 0.500000
vt 0.375000 0.500000
vt 0.625000 0.750000
vt 0.375000 0.750000
vt 0.625000 1.000000
vt 0.375000 1.000000
vt 0.875000 0.000000
vt 0.875000 0.250000
vt 0.125000 0.000000
vt 0.125000 0.250000
vt 0.375000 0.000000
vt 0.625000 0.000000
vt 0.625000 0.250000
vt 0.375000 0.250000
vt 0.625000 0.500000
vt 0.375000 0.500000
vt 0.625000 0.750000
vt 0.375000 0.750000
vt 0.625000 1.000000
vt 0.375000 1.000000
vt 0.875000 0.000000
vt 0.875000 0.250000
vt 0.125000 0.000000
vt 0.125000 0.250000
vt 0.375000 0.000000
vt 0.625000 0.000000
vt 0.625000 0.250000
vt 0.375000 0.250000
vt 0.625000 0.500000
vt 0.375000 0.500000
vt 0.625000 0.750000
vt 0.375000 0.750000
vt 0.625000 1.000000
vt 0.375000 1.000000
vt 0.875000 0.000000
vt 0.875000 0.250000
vt 0.125000 0.000000
vt 0.125000 0.250000
vt 0.375000 0.000000
vt 0.625000 0.000000
vt 0.625000 0.250000
vt 0.375000 0.250000
vt 0.625000 0.500000
vt 0.375000 0.500000
vt 0.625000 0.750000
vt 0.375000 0.750000
vt 0.625000 1.000000
vt 0.375000 1.000000
vt 0.875000 0.000000
vt 0.875000 0.250000
vt 0.125000 0.000000
vt 0.125000 0.250000
vt 0.375000 0.000000
vt 0.625000 0.000000
vt 0.625000 0.250000
vt 0.375000 0.250000
vt 0.625000 0.500000
vt 0.375000 0.500000
vt 0.625000 0.750000
vt 0.375000 0.750000
vt 0.625000 1.000000
vt 0.375000 1.000000
vt 0.875000 0.000000
vt 0.875000 0.250000
vt 0.125000 0.000000
vt 0.125000 0.250000
vt 0.375000 0.000000
vt 0.625000 0.000000
vt 0.625000 0.250000
vt 0.375000 0.250000
vt 0.625000 0.500000
vt 0.375000 0.500000
vt 0.625000 0.750000
vt 0.375000 0.750000
vt 0.625000 1.000000
vt 0.375000 1.000000
vt 0.875000 0.000000
vt 0.875000 0.250000
vt 0.125000 0.000000
vt 0.125000 0.250000
vn -0.720710 0.000000 0.693236
vn -0.720710 0.000000 0.693236
vn -0.720710 0.000000 0.693236
vn -0.720710 0.000000 0.693236
vn 0.000000 1.000000 0.000000
vn 0.000000 1.000000 0.000000
vn 0.000000 1.000000 0.000000
vn 0.000000 1.000000 0.000000
vn 0.720710 0.000000 -0.693236
vn 0.720710 0.000000 -0.693236
vn 0.720710 0.000000 -0.693236
vn 0.720710 0.000000 -0.693236
vn 0.000000 -1.000000 0.000000
vn 0.000000 -1.000000 0.000000
vn 0.000000 -1.000000 0.000000
vn 0.000000 -1.000000 0.000000
vn 0.693237 0.000000 0.720710
vn 0.693237 0.000000 0.720710
vn 0.693237 0.000000 0.720710
vn 0.693237 0.000000 0.720710
vn -0.693237 0.000000 -0.720710
vn -0.693237 0.000000 -0.720710
vn -0.693237 0.000000 -0.720710
vn -0.693237 0.000000 -0.720710
vn -0.720710 0.000000 0.693236
vn -0.720710 0.000000 0.693236
vn -0.720710 0.000000 0.693236
vn -0.720710 0.000000 0.693236
vn 0.000000 1.000000 -0.000000
vn 0.000000 1.000000 -0.000000
vn 0.000000 1.000000 -0.000000
vn 0.000000 1.000000 -0.000000
vn 0.720710 0.000000 -0.693237
vn 0.720710 0.000000 -0.693237
vn 0.720710 0.000000 -0.693237
vn 0.720710 0.000000 -0.693237
vn 0.000000 -1.000000 0.000000
vn 0.000000 -1.000000 0.000000
vn 0.000000 -1.000000 0.000000
vn 0.000000 -1.000000 0.000000
vn 0.693236 0.000000 0.720710
vn 0.693236 0.000000 0.720710
vn 0.693236 0.000000 0.720710
vn 0.693236 0.000000 0.720710
vn -0.693237 0.000000 -0.720710
vn -0.693237 0.000000 -0.720710
vn -0.693237 0.000000 -0.720710
vn -0.693237 0.000000 -0.720710
vn -0.720710 0.000000 0.693237
vn -0.720710 0.000000 0.693237
vn -0.720710 0.000000 0.693237
vn -0.720710 0.000000 0.693237
vn 0.000000 1.000000 0.000000
vn 0.000000 1.000000 0.000000
vn 0.000000 1.000000 0.000000
vn 0.000000 1.000000 0.000000
vn 0.720710 0.000000 -0.693236
vn 0.720710 0.000000 -0.693236
vn 0.720710 0.000000 -0.693236
vn 0.720710 0.000000 -0.693236
vn 0.000000 -1.000000 0.000000
vn 0.000000 -1.000000 0.000000
vn 0.000000 -1.000000 0.000000
vn 0.000000 -1.000000 0.000000
vn 0.693237 0.000000 0.720710
vn 0.693237 0.000000 0.720710
vn 0.693237 0.000000 0.720710
vn 0.693237 0.000000 0.720710
vn -0.693237 0.000000 -0.720710
vn -0.693237 0.000000 -0.720710
vn -0.693237 0.000000 -0.720710
vn -0.693237 0.000000 -0.720710
vn -0.720710 0.000000 0.693236
vn -0.720710 0.000000 0.693236
vn -0.720710 0.000000 0.693236
vn -0.720710 0.000000 0.693236
vn 0.000000 1.000000 0.000000
vn 0.000000 1.000000 0.000000
vn 0.000000 1.000000 0.000000
vn 0.000000 1.000000 0.000000
vn 0.720710 0.000000 -0.693237
vn 0.720710 0.000000 -0.693237
vn 0.720710 0.000000 -0.693237
vn 0.720710 0.000000 -0.693237
vn 0.000000 -1.000000 0.000000
vn 0.000000 -1.000000 0.000000
vn 0.000000 -1.000000 0.000000
vn 0.000000 -1.000000 0.000000
vn 0.693237 0.000000 0.720710
vn 0.693237 0.000000 0.720710
vn 0.693237 0.000000 0.720710
vn 0.693237 0.000000 0.720710
vn -0.693237 0.000000 -0.720710
vn -0.693237 0.000000 -0.720710
vn -0.693237 0.000000 -0.720710
vn -0.693237 0.000000 -0.720710
vn -0.720710 0.000000 0.693237
vn -0.720710 0.000000 0.693237
vn -0.720710 0.000000 0.693237
vn -0.720710 0.000000 0.693237
vn 0.000000 1.000000 0.000000
vn 0.000000 1.000000 0.000000
vn 0.000000 1.000000 0.000000
vn 0.000000 1.000000 0.000000
vn 0.720710 0.000000 -0.693237
vn 0.720710 0.000000 -0.693237
vn 0.720710 0.000000 -0.693237
vn 0.720710 0.000000 -0.693237
vn 0.000000 -1.000000 0.000000
vn 0.000000 -1.000000 0.000000
vn 0.000000 -1.000000 0.000000
vn 0.000000 -1.000000 0.000000
vn 0.693236 0.000000 0.720710
vn 0.693236 0.000000 0.720710
vn 0.693236 0.000000 0.720710
vn 0.693236 0.000000 0.720710
vn -0.693236 0.000000 -0.720710
vn -0.693236 0.000000 -0.720710
vn -0.693236 0.000000 -0.720710
vn -0.693236 0.000000 -0.720710
vn -0.720710 0.000000 0.693237
vn -0.720710 0.000000 0.693237
vn -0.720710 0.000000 0.693237
vn -0.720710 0.000000 0.693237
vn 0.000000 1.000000 0.000000
vn 0.000000 1.000000 0.000000
vn 0.000000 1.000000 0.000000
vn 0.000000 1.000000 0.000000
vn 0.720710 0.000000 -0.693237
vn 0.720710 0.000000 -0.693237
vn 0.720710 0.000000 -0.693237
vn 0.720710 0.000000 -0.693237
vn 0.000000 -1.000000 0.000000
vn 0.000000 -1.000000 0.000000
vn 0.000000 -1.000000 0.000000
vn 0.000000 -1.000000 0.000000
vn 0.693237 0.000000 0.720710
vn 0.693237 0.000000 0.720710
vn 0.693237 0.000000 0.720710
vn 0.693237 0.000000 0.720710
vn -0.693237 0.000000 -0.720710
vn -0.693237 0.000000 -0.720710
vn -0.693237 0.000000 -0.720710
vn -0.693237 0.000000 -0.720710
vn -0.720710 0.000000 0.693237
vn -0.720710 0.000000 0.693237
vn -0.720710 0.000000 0.693237
vn -0.720710 0.000000 0.693237
vn 0.000000 1.000000 0.000000
vn 0.000000 1.000000 0.000000
vn 0.000000 1.000000 0.000000
vn 0.000000 1.000000 0.000000
vn 0.720710 0.000000 -0.693237
vn 0.720710 0.000000 -0.693237
vn 0.720710 0.000000 -0.693237
vn 0.720710 0.000000 -0.693237
vn 0.000000 -1.000000 0.000000
vn 0.000000 -1.000000 0.000000
vn 0.000000 -1.000000 0.000000
vn 0.000000 -1.000000 0.000000
vn 0.693236 0.000000 0.720710
vn 0.693236 0.000000 0.720710
vn 0.693236 0.000000 0.720710
vn 0.693236 0.000000 0.720710
vn -0.693236 0.000000 -0.720710
vn -0.693236 0.000000 -0.720710
vn -0.693236 0.000000 -0.720710
vn -0.693236 0.000000 -0.720710
vn -0.720710 0.000000 0.693237
vn -0.720710 0.000000 0.693237
vn -0.720710 0.000000 0.693237
vn -0.720710 0.000000 0.693237
vn 0.000000 1.000000 0.000000
vn 0.000000 1.000000 0.000000
vn 0.000000 1.000000 0.000000
vn 0.000000 1.000000 0.000000
vn 0.720710 0.000000 -0.693237
vn 0.720710 0.000000 -0.693237
vn 0.720710 0.000000 -0.693237
vn 0.720710 0.000000 -0.693237
vn 0.000000 -1.000000 0.000000
vn 0.000000 -1.000000 0.000000
vn 0.000000 -1.000000 0.000000
vn 0.000000 -1.000000 0.000000
vn 0.693236 0.000000 0.720710
vn 0.693236 0.000000 0.720710
vn 0.693236 0.000000 0.720710
vn 0.693236 0.000000 0.720710
vn -0.693236 0.000000 -0.720710
vn -0.693236 0.000000 -0.720710
vn -0.693236 0.000000 -0.720710
vn -0.693236 0.000000 -0.720710
vn -0.720710 0.000000 0.693236
vn -0.720710 0.000000 0.693236
vn -0.720710 0.000000 0.693236
vn -0.720710 0.000000 0.693236
vn 0.000000 1.000000 -0.000000
vn 0.000000 1.000000 -0.000000
vn 0.000000 1.000000 -0.000000
vn 0.000000 1.000000 -0.000000
vn 0.720710 0.000000 -0.693237
vn 0.720710 0.000000 -0.693237
vn 0.720710 0.000000 -0.693237
vn 0.720710 0.000000 -0.693237
vn 0.000000 -1.000000 0.000000
vn 0.000000 -1.000000 0.000000
vn 0.000000 -1.000000 0.000000
vn 0.000000 -1.000000 0.000000
vn 0.693236 0.000000 0.720710
vn 0.693236 0.000000 0.720710
vn 0.693236 0.000000 0.720710
vn 0.693236 0.000000 0.720710
vn -0.693237 0.000000 -0.720710
vn -0.693237 0.000000 -0.720710
vn -0.693237 0.000000 -0.720710
vn -0.693237 0.000000 -0.720710
vn -0.720710 0.000000 0.693236
vn -0.720710 0.000000 0.693236
vn -0.720710 0.000000 0.693236
vn -0.720710 0.000000 0.693236
vn 0.000000 1.000000 0.000000
vn 0.000000 1.000000 0.000000
vn 0.000000 1.000000 0.000000
vn 0.000000 1.000000 0.000000
vn 0.720710 0.000000 -0.693237
vn 0.720710 0.000000 -0.693237
vn 0.720710 0.000000 -0.693237
vn 0.720710 0.000000 -0.693237
vn 0.000000 -1.000000 0.000000
vn 0.000000 -1.000000 0.000000
vn 0.000000 -1.000000 0.000000
vn 0.000000 -1.000000 0.000000
vn 0.693237 0.000000 0.720710
vn 0.693237 0.000000 0.720710
vn 0.693237 0.000000 0.720710
vn 0.693237 0.000000 0.720710
vn -0.693237 0.000000 -0.720710
vn -0.693237 0.000000 -0.720710
vn -0.693237 0.000000 -0.720710
vn -0.693237 0.000000 -0.720710
g pCube11
usemtl initialShadingGroup
f 1/1/1 2/2/2 4/4/3 3/3/4
f 3/3/5 4/4/6 6/6/7 5/5/8
f 5/5/9 6/6/10 8/8/11 7/7/12
f 7/7/13 8/8/14 2/10/15 1/9/16
f 2/2/17 8/11/18 6/12/19 4/4/20
f 7/13/21 1/1/22 3/3/23 5/14/24
f 9/15/25 10/16/26 12/17/27 11/18/28
f 11/18/29 12/17/30 14/19/31 13/20/32
f 13/20/33 14/19/34 16/21/35 15/22/36
f 15/22/37 16/21/38 10/23/39 9/24/40
f 10/16/41 16/25/42 14/26/43 12/17/44
f 15/27/45 9/15/46 11/18/47 13/28/48
f 17/29/49 18/30/50 20/31/51 19/32/52
f 19/32/53 20/31/54 22/33/55 21/34/56
f 21/34/57 22/33/58 24/35/59 23/36/60
f 23/36/61 24/35/62 18/37/63 17/38/64
f 18/30/65 24/39/66 22/40/67 20/31/68
f 23/41/69 17/29/70 19/32/71 21/42/72
f 25/43/73 26/44/74 28/45/75 27/46/76
f 27/46/77 28/45/78 30/47/79 29/48/80
f 29/48/81 30/47/82 32/49/83 31/50/84
f 31/50/85 32/49/86 26/51/87 25/52/88
f 26/44/89 32/53/90 30/54/91 28/45/92
f 31/55/93 25/43/94 27/46/95 29/56/96
f 33/57/97 34/58/98 36/59/99 35/60/100
f 35/60/101 36/59/102 38/61/103 37/62/104
f 37/62/105 38/61/106 40/63/107 39/64/108
f 39/64/109 40/63/110 34/65/111 33/66/112
f 34/58/113 40/67/114 38/68/115 36/59/116
f 39/69/117 33/57/118 35/60/119 37/70/120
f 41/71/121 42/72/122 44/73/123 43/74/124
f 43/74/125 44/73/126 46/75/127 45/76/128
f 45/76/129 46/75/130 48/77/131 47/78/132
f 47/78/133 48/77/134 42/79/135 41/80/136
f 42/72/137 48/81/138 46/82/139 44/73/140
f 47/83/141 41/71/142 43/74/143 45/84/144
f 49/85/145 50/86/146 52/87/147 51/88/148
f 51/88/149 52/87/150 54/89/151 53/90/152
f 53/90/153 54/89/154 56/91/155 55/92/156
f 55/92/157 56/91/158 50/93/159 49/94/160
f 50/86/161 56/95/162 54/96/163 52/87/164
f 55/97/165 49/85/166 51/88/167 53/98/168
f 57/99/169 58/100/170 60/101/171 59/102/172
f 59/102/173 60/101/174 62/103/175 61/104/176
f 61/104/177 62/103/178 64/105/179 63/106/180
f 63/106/181 64/105/182 58/107/183 57/108/184
f 58/100/185 64/109/186 62/110/187 60/101/188
f 63/111/189 57/99/190 59/102/191 61/112/192
f 65/113/193 66/114/194 68/115/195 67/116/196
f 67/116/197 68/115/198 70/117/199 69/118/200
f 69/118/201 70/117/202 72/119/203 71/120/204
f 71/120/205 72/119/206 66/121/207 65/122/208
f 66/114/209 72/123/210 70/124/211 68/115/212
f 71/125/213 65/113/214 67/116/215 69/126/216
f 73/127/217 74/128/218 76/129/219 75/130/220
f 75/130/221 76/129/222 78/131/223 77/132/224
f 77/132/225 78/131/226 80/133/227 79/134/228
f 79/134/229 80/133/230 74/135/231 73/136/232
f 74/128/233 80/137/234 78/138/235 76/129/236
f 79/139/237 73/127/238 75/130/239 77/140/240
