# This file uses centimeters as units for non-parametric coordinates.

mtllib tdsw_shell.mtl
g default
v -0.396390 0.330000 0.381280
v -0.132961 0.330000 0.655150
v -0.396390 0.660000 0.381280
v -0.132961 0.660000 0.655150
v -0.198195 0.660000 0.190640
v 0.065235 0.660000 0.464510
v 0.065235 0.330000 0.464510
v -0.198195 0.660000 0.190640
v 0.065235 0.660000 0.464510
v -0.198195 0.990000 0.190640
v 0.065235 0.990000 0.464510
v 0.000000 0.990000 0.000000
v 0.263430 0.990000 0.273870
v 0.263430 0.660000 0.273870
v 0.328664 0.000000 0.738380
v 0.592094 0.000000 1.012250
v 0.328664 0.330000 0.738380
v 0.592094 0.330000 1.012250
v 0.526860 0.330000 0.547740
v 0.790290 0.330000 0.821610
v 0.790290 0.000000 0.821610
v -0.132961 0.000000 0.655150
v 0.130469 0.000000 0.929020
v -0.132961 0.330000 0.655150
v 0.130469 0.330000 0.929020
v 0.065235 0.330000 0.464510
v 0.328664 0.330000 0.738380
v 0.328664 0.000000 0.738380
v 0.065235 0.330000 0.464510
v 0.328664 0.330000 0.738380
v 0.065235 0.660000 0.464510
v 0.328664 0.660000 0.738380
v 0.263430 0.660000 0.273870
v 0.526860 0.660000 0.547740
v 0.526860 0.330000 0.547740
v -0.594586 0.000000 0.571920
v -0.331156 0.000000 0.845790
v -0.594586 0.330000 0.571920
v -0.331156 0.330000 0.845790
v -0.396391 0.330000 0.381280
v -0.132961 0.330000 0.655150
v -0.132961 0.000000 0.655150
vt 0.375000 0.000000
vt 0.625000 0.000000
vt 0.625000 0.250000
vt 0.375000 0.250000
vt 0.625000 0.500000
vt 0.375000 0.500000
vt 0.875000 0.000000
vt 0.875000 0.250000
vt 0.375000 0.000000
vt 0.625000 0.000000
vt 0.625000 0.250000
vt 0.375000 0.250000
vt 0.625000 0.500000
vt 0.375000 0.500000
vt 0.875000 0.000000
vt 0.875000 0.250000
vt 0.375000 0.000000
vt 0.625000 0.000000
vt 0.625000 0.250000
vt 0.375000 0.250000
vt 0.625000 0.500000
vt 0.375000 0.500000
vt 0.875000 0.000000
vt 0.875000 0.250000
vt 0.375000 0.000000
vt 0.625000 0.000000
vt 0.625000 0.250000
vt 0.375000 0.250000
vt 0.625000 0.500000
vt 0.375000 0.500000
vt 0.875000 0.000000
vt 0.875000 0.250000
vt 0.375000 0.000000
vt 0.625000 0.000000
vt 0.625000 0.250000
vt 0.375000 0.250000
vt 0.625000 0.500000
vt 0.375000 0.500000
vt 0.875000 0.000000
vt 0.875000 0.250000
vt 0.375000 0.000000
vt 0.625000 0.000000
vt 0.625000 0.250000
vt 0.375000 0.250000
vt 0.625000 0.500000
vt 0.375000 0.500000
vt 0.875000 0.000000
vt 0.875000 0.250000
vn -0.720710 0.000000 0.693237
vn -0.720710 0.000000 0.693237
vn -0.720710 0.000000 0.693237
vn -0.720710 0.000000 0.693237
vn 0.000000 1.000000 0.000000
vn 0.000000 1.000000 0.000000
vn 0.000000 1.000000 0.000000
vn 0.000000 1.000000 0.000000
vn 0.693237 0.000000 0.720710
vn 0.693237 0.000000 0.720710
vn 0.693237 0.000000 0.720710
vn 0.693237 0.000000 0.720710
vn -0.720710 0.000000 0.693236
vn -0.720710 0.000000 0.693236
vn -0.720710 0.000000 0.693236
vn -0.720710 0.000000 0.693236
vn 0.000000 1.000000 0.000000
vn 0.000000 1.000000 0.000000
vn 0.000000 1.000000 0.000000
vn 0.000000 1.000000 0.000000
vn 0.693237 0.000000 0.720710
vn 0.693237 0.000000 0.720710
vn 0.693237 0.000000 0.720710
vn 0.693237 0.000000 0.720710
vn -0.720710 0.000000 0.693237
vn -0.720710 0.000000 0.693237
vn -0.720710 0.000000 0.693237
vn -0.720710 0.000000 0.693237
vn 0.000000 1.000000 0.000000
vn 0.000000 1.000000 0.000000
vn 0.000000 1.000000 0.000000
vn 0.000000 1.000000 0.000000
vn 0.693236 0.000000 0.720710
vn 0.693236 0.000000 0.720710
vn 0.693236 0.000000 0.720710
vn 0.693236 0.000000 0.720710
vn -0.720710 0.000000 0.693237
vn -0.720710 0.000000 0.693237
vn -0.720710 0.000000 0.693237
vn -0.720710 0.000000 0.693237
vn 0.000000 1.000000 0.000000
vn 0.000000 1.000000 0.000000
vn 0.000000 1.000000 0.000000
vn 0.000000 1.000000 0.000000
vn 0.693237 0.000000 0.720710
vn 0.693237 0.000000 0.720710
vn 0.693237 0.000000 0.720710
vn 0.693237 0.000000 0.720710
vn -0.720710 0.000000 0.693237
vn -0.720710 0.000000 0.693237
vn -0.720710 0.000000 0.693237
vn -0.720710 0.000000 0.693237
vn 0.000000 1.000000 0.000000
vn 0.000000 1.000000 0.000000
vn 0.000000 1.000000 0.000000
vn 0.000000 1.000000 0.000000
vn 0.693236 0.000000 0.720710
vn 0.693236 0.000000 0.720710
vn 0.693236 0.000000 0.720710
vn 0.693236 0.000000 0.720710
vn -0.720710 0.000000 0.693236
vn -0.720710 0.000000 0.693236
vn -0.720710 0.000000 0.693236
vn -0.720710 0.000000 0.693236
vn 0.000000 1.000000 0.000000
vn 0.000000 1.000000 0.000000
vn 0.000000 1.000000 0.000000
vn 0.000000 1.000000 0.000000
vn 0.693237 0.000000 0.720710
vn 0.693237 0.000000 0.720710
vn 0.693237 0.000000 0.720710
vn 0.693237 0.000000 0.720710
g pCube11
usemtl initialShadingGroup
f 1/1/1 2/2/2 4/3/3 3/4/4
f 3/4/5 4/3/6 6/5/7 5/6/8
f 2/2/9 7/7/10 6/8/11 4/3/12
f 8/9/13 9/10/14 11/11/15 10/12/16
f 10/12/17 11/11/18 13/13/19 12/14/20
f 9/10/21 14/15/22 13/16/23 11/11/24
f 15/17/25 16/18/26 18/19/27 17/20/28
f 17/20/29 18/19/30 20/21/31 19/22/32
f 16/18/33 21/23/34 20/24/35 18/19/36
f 22/25/37 23/26/38 25/27/39 24/28/40
f 24/28/41 25/27/42 27/29/43 26/30/44
f 23/26/45 28/31/46 27/32/47 25/27/48
f 29/33/49 30/34/50 32/35/51 31/36/52
f 31/36/53 32/35/54 34/37/55 33/38/56
f 30/34/57 35/39/58 34/40/59 32/35/60
f 36/41/61 37/42/62 39/43/63 38/44/64
f 38/44/65 39/43/66 41/45/67 40/46/68
f 37/42/69 42/47/70 41/48/71 39/43/72
